<svg xmlns="http://www.w3.org/2000/svg" fill="none" viewBox="0 0 364 185"><defs/><path fill="#AEB9E2" d="M364 139.305v45.097l-362.67.202L1 94.456c3.83 11.548 13.285 13.623 29.932-6.745C71.615 38 126.917 24.916 169.724 23.543c29.295-.944 58.524 5.246 86.42 17.543 11.586 5.118 57.374 10.626 87.591 13.084 5.485.442 10.605 2.98 14.344 7.11 3.738 4.13 5.821 9.547 5.833 15.176l.088 62.849z" opacity=".2"/><path fill="#AEB9E2" d="M364 95.205v89.624H1v-19.483c10.378-2.675 49.193-12.964 67.803-41.38 22.264-34.021 52.526-42.969 75.94-43.905 16.046-.652 32.019 3.566 47.267 11.99 17.152 9.471 50.219 20.899 75.339-12.275 27.786-36.682 70.469-6.452 81.293 4.66C352.509 88.364 364 95.207 364 95.207z" opacity=".2"/><path stroke="#7A8FE4" stroke-miterlimit="10" stroke-width="2" d="M1 .156V183.42h363"/><path stroke="#7A8FE4" stroke-miterlimit="10" d="M46.737 183.42V71.698M90.796 183.42V41.813M134.855 183.42V27.597M178.915 183.42V23.191M222.975 183.421V28.092M267.034 183.42V46.22M311.094 183.42V55.526"/><path fill="#AEB9E2" d="M46.495 78.562c4.498 0 8.144-3.731 8.144-8.333s-3.646-8.333-8.144-8.333-8.144 3.73-8.144 8.333c0 4.602 3.646 8.333 8.144 8.333zM90.554 50.146c4.498 0 8.144-3.73 8.144-8.333 0-4.602-3.646-8.333-8.144-8.333-4.497 0-8.144 3.73-8.144 8.333 0 4.602 3.647 8.333 8.144 8.333zM134.614 36.425c4.498 0 8.144-3.73 8.144-8.333 0-4.602-3.646-8.333-8.144-8.333s-8.144 3.73-8.144 8.333c0 4.602 3.646 8.333 8.144 8.333zM178.666 31.524c4.498 0 8.144-3.73 8.144-8.333 0-4.602-3.646-8.333-8.144-8.333s-8.144 3.731-8.144 8.333 3.646 8.333 8.144 8.333zM222.726 36.425c4.497 0 8.144-3.73 8.144-8.333 0-4.602-3.647-8.333-8.144-8.333-4.498 0-8.144 3.73-8.144 8.333 0 4.602 3.646 8.333 8.144 8.333zM266.785 55.04c4.498 0 8.144-3.732 8.144-8.334 0-4.602-3.646-8.333-8.144-8.333s-8.144 3.731-8.144 8.333 3.646 8.333 8.144 8.333zM310.845 64.84c4.497 0 8.144-3.73 8.144-8.332s-3.647-8.333-8.144-8.333c-4.498 0-8.144 3.73-8.144 8.333 0 4.602 3.646 8.333 8.144 8.333z"/></svg>